#!OML:ASF F:\VICON\USERDATA\INSTALL\rory3\rory3.ASF
:FULLY-SPECIFIED
:DEGREES
407
root 0.730261 17.7888 6.85885 5.89123 -4.4604 -0.958953
lowerback 6.82408 -0.172499 -2.0818
upperback -1.96988 -0.28061 2.4848
thorax -5.8685 -0.0146062 3.80432
lowerneck -18.8526 -6.43021 -10.2147
upperneck 20.7218 -7.70779 7.13425
head 10.4427 -3.54206 3.08252
rclavicle 8.44835e-016 6.75868e-015
rhumerus -36.1557 -14.3171 -72.968
rradius 37.3423
rwrist 5.42753
rhand -9.90069 13.5422
rfingers 7.12502
rthumb 16.0793 -15.8107
lclavicle 8.44835e-016 6.75868e-015
lhumerus -39.9473 12.3128 74.0083
lradius 44.7938
lwrist -3.81684
lhand -16.8956 22.0175
lfingers 7.12502
lthumb 9.33605 51.7908
rfemur -7.95307 3.78998 22.2076
rtibia 18.2177
rfoot -8.75347 -7.00272
rtoes 12.3255
lfemur -8.69749 -4.48986 -19.1889
ltibia 20.72
lfoot -10.0732 11.4755
ltoes -0.981115
408
root 0.725249 17.7936 6.86335 5.92945 -4.41209 -0.958001
lowerback 6.8154 -0.168041 -2.13464
upperback -1.98389 -0.278118 2.50495
thorax -5.87843 -0.0106664 3.85534
lowerneck -19.123 -6.51423 -10.11
upperneck 21.0122 -7.79869 6.94469
head 10.5945 -3.59125 2.97914
rclavicle -6.85807e-015 4.57205e-014
rhumerus -36.2791 -14.3778 -72.9895
rradius 37.1279
rwrist 5.38886
rhand -10.0176 13.6304
rfingers 7.12502
rthumb 15.9667 -15.7315
lclavicle -6.85807e-015 4.57205e-014
lhumerus -39.7893 12.6564 73.9908
lradius 44.2616
lwrist -4.25961
lhand -17.1621 20.7867
lfingers 7.12502
lthumb 9.07892 50.5713
rfemur -8.03526 4.13408 22.1924
rtibia 18.3718
rfoot -9.37157 -7.34544
rtoes 12.6289
lfemur -8.68891 -4.39693 -19.1583
ltibia 20.5868
lfoot -9.99645 11.33
ltoes -1.11366
409
root 0.725729 17.7918 6.86346 5.96828 -4.22819 -0.888348
lowerback 6.84701 -0.207352 -2.12857
upperback -1.99137 -0.332227 2.47232
thorax -5.89994 -0.0377643 3.82442
lowerneck -19.1216 -6.44046 -10.1583
upperneck 20.8855 -7.72314 7.14244
head 10.5517 -3.53738 3.07014
rclavicle -4.47266e-015 1.66979e-014
rhumerus -36.2663 -14.7215 -72.9307
rradius 36.6069
rwrist 5.7662
rhand -10.0065 14.3538
rfingers 7.12502
rthumb 15.9774 -15.0073
lclavicle -4.47266e-015 1.66979e-014
lhumerus -39.7459 12.8142 74.0739
lradius 44.1462
lwrist -4.30966
lhand -17.4688 21.1121
lfingers 7.12502
lthumb 8.78294 50.9094
rfemur -8.13659 3.84373 22.1625
rtibia 18.4919
rfoot -8.94774 -7.30648
rtoes 13.0148
lfemur -8.68375 -4.43051 -19.2085
ltibia 20.4538
lfoot -9.98377 11.1639
ltoes -1.07633
410
root 0.72588 17.7878 6.86911 5.94919 -4.09996 -0.815021
lowerback 6.75934 -0.231435 -2.12584
upperback -1.91289 -0.366491 2.42523
thorax -5.76442 -0.0592997 3.77465
lowerneck -18.7211 -6.24259 -10.2962
upperneck 20.3193 -7.52007 7.57905
head 10.2768 -3.41393 3.28535
rclavicle 7.70291e-015 -3.29983e-014
rhumerus -36.0378 -15.3483 -72.8385
rradius 35.8058
rwrist 6.51117
rhand -9.92313 15.0189
rfingers 7.12502
rthumb 16.0577 -14.3358
lclavicle 7.70291e-015 -3.29983e-014
lhumerus -39.8892 12.8825 74.185
lradius 44.5029
lwrist -4.26912
lhand -17.1495 22.7279
lfingers 7.12502
lthumb 9.09104 52.5119
rfemur -8.15432 3.65104 22.132
rtibia 18.5802
rfoot -8.66696 -7.27714
rtoes 12.9915
lfemur -8.58746 -4.47202 -19.2806
ltibia 20.3274
lfoot -9.94304 11.1302
ltoes -1.50445
411
root 0.722249 17.789 6.88215 5.92731 -4.09907 -0.795157
lowerback 6.5905 -0.209111 -2.13443
upperback -1.81565 -0.337711 2.39916
thorax -5.56811 -0.0501819 3.7448
lowerneck -18.4242 -6.12246 -10.4277
upperneck 19.8837 -7.39958 7.91804
head 10.0732 -3.3372 3.44837
rclavicle 3.03147e-015 2.8625e-014
rhumerus -35.8871 -15.7981 -72.8161
rradius 35.264
rwrist 6.96512
rhand -9.85854 14.9813
rfingers 7.12502
rthumb 16.1199 -14.3683
lclavicle 3.03147e-015 2.8625e-014
lhumerus -39.9054 12.9057 74.2639
lradius 44.5705
lwrist -4.24807
lhand -16.586 23.5781
lfingers 7.12502
lthumb 9.63476 53.3378
rfemur -8.13018 3.86673 22.1286
rtibia 18.6782
rfoot -9.15406 -7.62796
rtoes 11.0713
lfemur -8.45629 -4.47214 -19.2903
ltibia 20.2045
lfoot -9.943 11.1321
ltoes -1.5567
412
root 0.721254 17.7912 6.8998 5.91359 -4.03719 -0.755076
lowerback 6.35975 -0.220628 -2.12084
upperback -1.69921 -0.351764 2.37058
thorax -5.31327 -0.0643052 3.70353
lowerneck -18.5936 -6.13007 -10.3723
upperneck 19.8886 -7.39695 7.87096
head 10.1018 -3.33272 3.41997
rclavicle 3.8763e-015 3.57812e-015
rhumerus -35.8076 -15.9672 -72.8834
rradius 34.945
rwrist 6.97329
rhand -9.92386 15.0093
rfingers 7.12502
rthumb 16.057 -14.3454
lclavicle 3.8763e-015 3.57812e-015
lhumerus -39.7137 12.9476 74.3484
lradius 44.2208
lwrist -4.09488
lhand -16.9367 22.8395
lfingers 7.12502
lthumb 9.29646 52.6145
rfemur -8.06568 3.75177 22.1089
rtibia 18.7682
rfoot -8.47337 -7.38765
rtoes 13.8958
lfemur -8.29458 -4.55757 -19.3477
ltibia 20.0633
lfoot -9.95098 11.1553
ltoes -1.56618
413
root 0.721137 17.7902 6.90678 5.92008 -3.95675 -0.674249
lowerback 6.30761 -0.215155 -2.12162
upperback -1.68113 -0.347288 2.30622
thorax -5.26516 -0.064272 3.63494
lowerneck -18.6191 -6.18011 -10.2665
upperneck 19.8652 -7.467 7.76154
head 10.0961 -3.36845 3.35157
rclavicle -1.19768e-014 -1.19271e-015
rhumerus -35.7989 -16.3107 -72.897
rradius 34.4999
rwrist 7.04967
rhand -9.90758 15.441
rfingers 7.12502
rthumb 16.0726 -13.9124
lclavicle -1.19768e-014 -1.19271e-015
lhumerus -39.6053 12.7997 74.4169
lradius 43.9451
lwrist -4.03384
lhand -17.1926 23.0683
lfingers 7.12502
lthumb 9.04947 52.8542
rfemur -8.02156 3.64755 22.0095
rtibia 18.8409
rfoot -8.51247 -7.31175
rtoes 12.3973
lfemur -8.21488 -4.57359 -19.4415
ltibia 19.9186
lfoot -9.83022 11.075
ltoes -1.99582
414
root 0.720596 17.7902 6.90797 5.8793 -3.89312 -0.587236
lowerback 6.38137 -0.214113 -2.19009
upperback -1.68286 -0.35343 2.28754
thorax -5.30832 -0.0646017 3.65587
lowerneck -18.6224 -6.21082 -10.2921
upperneck 19.8736 -7.49657 7.73706
head 10.1029 -3.38664 3.34233
rclavicle 1.59028e-015 -1.74931e-014
rhumerus -35.7405 -16.5223 -72.8942
rradius 34.0374
rwrist 7.29069
rhand -9.82342 15.633
rfingers 7.12502
rthumb 16.1537 -13.7139
lclavicle 1.59028e-015 -1.74931e-014
lhumerus -39.7603 12.7602 74.4981
lradius 43.94
lwrist -4.22112
lhand -16.922 23.5361
lfingers 7.12502
lthumb 9.31059 53.3105
rfemur -7.96764 3.81551 21.8927
rtibia 18.897
rfoot -9.37352 -7.618
rtoes 11.7804
lfemur -8.11745 -4.6676 -19.5348
ltibia 19.8049
lfoot -9.81623 11.068
ltoes -1.76525
